<?xml version="1.0" standalone="no"?>
<!DOCTYPE svg PUBLIC "-//W3C//DTD SVG 20010904//EN"
 "http://www.w3.org/TR/2001/REC-SVG-20010904/DTD/svg10.dtd">
<svg version="1.0" xmlns="http://www.w3.org/2000/svg"
 width="2000.000000pt" height="2000.000000pt" viewBox="0 0 2000.000000 2000.000000"
 preserveAspectRatio="xMidYMid meet">
<metadata>
Created by potrace 1.14, written by Peter Selinger 2001-2017
</metadata>
<g transform="translate(0.000000,2000.000000) scale(0.100000,-0.100000)"
fill="#000000" stroke="none">
<path d="M0 10000 l0 -10000 10000 0 10000 0 0 10000 0 10000 -10000 0 -10000
0 0 -10000z m5455 6541 c868 -134 1565 -568 2099 -1306 8 -11 16 -18 18 -15 3
3 35 232 72 510 37 278 70 520 73 538 l5 32 809 0 809 0 0 -2465 0 -2465
-1073 0 -1072 0 -29 113 c-126 498 -320 926 -572 1262 -183 244 -356 395 -583
509 -351 177 -803 214 -1196 101 -803 -232 -1402 -1131 -1594 -2390 -115 -754
-82 -1695 83 -2375 241 -998 734 -1677 1396 -1923 474 -176 1081 -98 1482 190
382 275 712 850 879 1531 l42 172 1258 0 c692 0 1260 -4 1263 -8 8 -13 -22
-308 -55 -536 -98 -688 -295 -1355 -586 -1980 -553 -1191 -1497 -2086 -2558
-2426 -692 -221 -1512 -251 -2213 -79 -708 173 -1369 557 -1942 1129 -821 818
-1417 1998 -1699 3360 -224 1083 -252 2396 -75 3540 234 1522 853 2877 1724
3774 385 397 759 671 1213 891 346 167 688 270 1067 319 176 23 184 24 510 21
253 -2 329 -6 445 -24z m9927 -256 c935 -89 1724 -471 2428 -1175 530 -529
937 -1172 1255 -1979 465 -1180 649 -2555 530 -3956 -123 -1442 -596 -2790
-1319 -3755 -140 -187 -272 -338 -465 -531 -375 -375 -689 -605 -1106 -809
-455 -223 -901 -342 -1425 -379 -93 -7 -992 -11 -2528 -11 l-2382 0 2 947 3
947 538 134 537 134 0 4144 0 4143 -37 10 c-21 6 -247 62 -503 126 -256 64
-482 120 -502 126 l-38 10 0 944 0 945 2428 0 c2070 0 2452 -2 2584 -15z"/>
<path d="M14020 9995 l0 -3605 358 0 c385 0 544 10 691 41 421 91 800 352
1113 764 342 451 548 1071 632 1900 65 633 55 1414 -24 2013 -88 664 -268
1198 -535 1588 -305 444 -692 740 -1112 849 -178 46 -291 55 -724 55 l-399 0
0 -3605z"/>
</g>
</svg>
