<?xml version="1.0" standalone="no"?>
<!DOCTYPE svg PUBLIC "-//W3C//DTD SVG 20010904//EN"
 "http://www.w3.org/TR/2001/REC-SVG-20010904/DTD/svg10.dtd">
<svg version="1.0" xmlns="http://www.w3.org/2000/svg"
 width="2000.000000pt" height="2000.000000pt" viewBox="0 0 2000.000000 2000.000000"
 preserveAspectRatio="xMidYMid meet">
<metadata>
Created by potrace 1.14, written by Peter Selinger 2001-2017
</metadata>
<g transform="translate(0.000000,2000.000000) scale(0.100000,-0.100000)"
fill="#000000" stroke="none">
<path d="M0 10000 l0 -10000 10000 0 10000 0 0 10000 0 10000 -10000 0 -10000
0 0 -10000z m8300 -120 l0 -7370 -72 0 c-234 0 -634 33 -923 76 -1485 220
-2834 954 -3730 2029 -647 775 -1031 1705 -1105 2675 -8 103 -10 880 -7 2685
3 2320 5 2551 20 2670 45 340 106 615 201 908 442 1353 1521 2498 2959 3141
771 345 1684 547 2500 555 l157 1 0 -7370z m4486 7359 c1159 -76 2220 -428
3137 -1041 595 -397 1113 -912 1497 -1488 483 -725 757 -1559 787 -2398 l6
-182 -2924 2 -2924 3 -3 2558 -2 2557 133 0 c74 0 205 -5 293 -11z m5424
-9708 c0 -285 -63 -741 -146 -1051 -184 -690 -510 -1312 -996 -1895 -115 -139
-426 -453 -580 -587 -871 -757 -1988 -1254 -3193 -1422 -245 -34 -523 -56
-745 -59 l-185 -2 -3 2558 -2 2557 2925 0 2925 0 0 -99z"/>
</g>
</svg>
